HIERARCHY
ROOT Hips
{
  OFFSET 0.000000 0.000000 0.000000
  CHANNELS 6 Xposition Yposition Zposition Zrotation Xrotation Yrotation
  JOINT LeftUpLeg
  {
    OFFSET 0.064875 -0.100660 -0.015030
    CHANNELS 3 Zrotation Xrotation Yrotation
    JOINT LeftLeg
    {
      OFFSET 0.067832 -0.329465 0.043272
      CHANNELS 3 Zrotation Xrotation Yrotation
      JOINT LeftFoot
      {
        OFFSET -0.045467 -0.388614 -0.104506
        CHANNELS 3 Zrotation Xrotation Yrotation
        JOINT LeftToeBase
        {
          OFFSET 0.058512 -0.060197 0.116994
          CHANNELS 3 Zrotation Xrotation Yrotation
          End Site
          {
            OFFSET 0 0 0.1
          }
        }
      }
    }
  }
  JOINT RightUpLeg
  {
    OFFSET -0.069617 -0.123531 -0.011293
    CHANNELS 3 Zrotation Xrotation Yrotation
    JOINT RightLeg
    {
      OFFSET -0.046247 -0.308933 0.068340
      CHANNELS 3 Zrotation Xrotation Yrotation
      JOINT RightFoot
      {
        OFFSET 0.019223 -0.402860 -0.098409
        CHANNELS 3 Zrotation Xrotation Yrotation
        JOINT RightToeBase
        {
          OFFSET -0.024692 -0.055429 0.114544
          CHANNELS 3 Zrotation Xrotation Yrotation
          End Site
          {
            OFFSET 0 0 0.1
          }
        }
      }
    }
  }
  JOINT Spine
  {
    OFFSET 0.001381 0.079355 -0.033058
    CHANNELS 3 Zrotation Xrotation Yrotation
    JOINT Spine1
    {
      OFFSET 0.015717 0.137630 0.048978
      CHANNELS 3 Zrotation Xrotation Yrotation
      JOINT Spine2
      {
        OFFSET 0.003861 0.078964 0.012353
        CHANNELS 3 Zrotation Xrotation Yrotation
        JOINT Neck
        {
          OFFSET 0.003768 0.177824 0.007291
          CHANNELS 3 Zrotation Xrotation Yrotation
          JOINT RightArm
          {
            OFFSET 0.008087 0.045651 0.069263
            CHANNELS 3 Zrotation Xrotation Yrotation
            End Site
            {
              OFFSET 0 0 0.1
            }
          }
        }
        JOINT RightShoulder
        {
          OFFSET 0.069818 0.094121 -0.000772
          CHANNELS 3 Zrotation Xrotation Yrotation
          JOINT LeftArm
          {
            OFFSET 0.110596 -0.004363 -0.015577
            CHANNELS 3 Zrotation Xrotation Yrotation
            JOINT LeftForeArm
            {
              OFFSET 0.048698 -0.219044 0.005263
              CHANNELS 3 Zrotation Xrotation Yrotation
              JOINT LeftHand
              {
                OFFSET -0.025130 -0.152294 0.100658
                CHANNELS 3 Zrotation Xrotation Yrotation
                End Site
                {
                  OFFSET 0 0 0.1
                }
              }
            }
          }
        }
        JOINT LeftShoulder
        {
          OFFSET -0.074634 0.112176 0.010152
          CHANNELS 3 Zrotation Xrotation Yrotation
          JOINT RightForeArm
          {
            OFFSET -0.110278 -0.001623 -0.001839
            CHANNELS 3 Zrotation Xrotation Yrotation
            JOINT RightHand
            {
              OFFSET -0.094224 -0.217340 -0.025637
              CHANNELS 3 Zrotation Xrotation Yrotation
              JOINT LeftHandEnd
              {
                OFFSET 0.035623 -0.136451 0.134990
                CHANNELS 3 Zrotation Xrotation Yrotation
                End Site
                {
                  OFFSET 0 0 0.1
                }
              }
            }
          }
        }
      }
    }
  }
}
MOTION
Frames: 8
Frame Time: 0.05000000
0.000000 0.941152 0.000000 -0.000000 0.000000 0.000000 -56.711694 -3.873343 7.170174 67.487578 -12.523057 -5.624703 -18.805116 22.141754 2.589494 0.843326 9.746275 25.878181 60.384789 -2.653073 -4.558237 -67.973070 -15.605908 3.344771 11.709804 25.989274 -1.979030 -0.058208 11.603996 -11.827163 -0.997210 -22.612653 -0.199381 -7.179387 41.930606 4.234476 3.525451 -10.621862 0.340437 1.569455 -6.536112 0.052426 3.275233 -35.555601 6.790510 53.431101 0.189889 0.377296 34.337202 7.641557 -7.908711 -75.284093 -10.825184 -5.655396 -21.672492 -31.806997 -2.362246 -56.189474 -2.302894 4.312435 -32.752278 5.228878 -1.434703 65.663506 4.925874 1.767809 41.116356 -49.327131 10.187279
0.006512 0.940715 0.015235 -0.000000 0.000000 -9.442540 -55.873205 -11.925745 12.842797 67.212978 -12.780106 -5.986352 -18.676178 22.052018 2.575854 0.955753 9.287490 25.956100 60.497662 5.615268 0.171662 -68.334275 -15.501850 3.243302 11.508035 26.047763 -1.885369 0.090807 11.238174 -11.363696 3.474773 -23.065308 10.151762 -8.433404 42.159128 4.827223 4.302528 -10.828847 0.470189 1.322852 -6.340603 0.025428 3.593906 -35.118960 7.698997 53.035222 7.769931 6.058209 35.106935 10.115999 -10.450340 -78.620802 -11.521533 -8.345167 -10.943824 -23.495541 -0.305635 -55.911601 -10.293800 9.822136 -31.142702 7.362730 0.194760 67.902312 6.936310 3.530039 29.104480 -36.721297 5.722624
0.006716 0.950602 0.027301 -0.000000 0.000000 -9.714428 -56.095371 -12.409902 13.353181 67.384166 -12.776217 -6.369277 -18.576979 21.603972 2.491960 0.646711 10.148010 26.694777 60.399938 5.917036 0.434496 -67.847403 -15.056649 3.225458 10.933215 26.062873 -1.765287 -0.013626 11.680433 -10.128318 3.988008 -22.232468 10.498322 -9.287603 41.326372 4.997095 3.521738 -9.994863 0.266609 2.344588 -6.412272 0.112553 3.635851 -35.804669 7.713035 53.723232 8.084780 6.172011 35.141350 8.122388 -8.684283 -76.419038 -13.071282 -6.031111 -20.956168 -35.589364 -2.028998 -55.739188 -10.786223 10.530533 -32.495425 5.457265 -2.383819 66.512775 7.579403 1.857824 43.108171 -46.290558 11.636329
0.000308 0.942582 0.039204 -0.000000 0.000000 -9.996944 -55.909964 -12.759055 13.796796 67.393824 -13.022829 -6.572107 -18.965144 21.839504 2.578289 0.879557 9.585907 26.832595 60.503510 6.397274 0.949860 -68.290281 -15.177200 2.790918 11.060543 26.242441 -1.791804 0.129174 11.582490 -10.330715 4.033449 -22.984053 10.817299 -9.192671 41.873400 5.110832 4.692089 -10.599480 0.534549 1.112795 -6.424972 0.000494 4.051313 -35.263138 8.640396 52.709711 8.533289 7.130535 35.029770 11.398138 -12.664397 -79.081990 -11.390459 -10.201017 -6.748218 -17.731675 0.102644 -55.827019 -11.042414 10.683921 -31.042238 7.519661 -0.480542 68.609643 8.252957 3.433200 24.536906 -31.630848 3.992297
0.003715 0.948706 0.046415 -0.000000 0.000000 -10.290050 -56.080877 -13.215396 14.250635 67.649458 -13.052441 -6.861738 -19.094523 21.541229 2.547123 0.678253 10.210815 27.588047 60.409907 6.767106 1.308452 -67.872971 -15.002032 2.661937 10.594744 26.359438 -1.726214 0.024998 12.118238 -9.344967 4.238166 -22.150254 11.119998 -9.368829 41.152084 5.016829 4.181630 -10.245162 0.415663 1.549482 -6.401313 0.033665 4.165153 -35.836910 8.704012 52.964975 8.927136 7.520255 34.648388 9.516369 -11.201699 -76.786029 -12.135993 -8.226268 -15.521965 -28.175103 -1.186570 -55.604087 -11.488068 11.310870 -32.477471 5.542836 -2.968372 67.250608 8.358212 1.684372 36.322156 -41.740043 8.074286
0.008602 0.946060 0.057799 -0.000000 0.000000 -10.593682 -55.588437 -13.724560 15.127975 67.115792 -13.484050 -7.444573 -19.117917 21.377117 2.553217 0.530444 10.445341 28.457591 60.125505 7.175224 1.770813 -67.537451 -14.465518 2.449991 10.386577 26.694231 -1.670478 0.005953 10.776216 -9.294429 5.144442 -22.894731 11.636081 -10.739845 41.533064 5.647093 3.333864 -8.614511 0.207875 3.218077 -7.050665 0.205183 4.224912 -35.897387 10.117508 53.708098 9.275544 7.611208 34.092023 9.797058 -11.551518 -77.939307 -14.068856 -8.550641 -15.620547 -29.089515 -1.201736 -55.754805 -11.884748 11.670580 -30.379016 5.211333 -3.698844 68.094271 10.757892 1.543566 35.870992 -37.938141 8.826094
-0.001554 0.941932 0.057575 -0.000000 0.000000 -10.907754 -55.910280 -13.955916 15.065809 67.783158 -13.648767 -7.197035 -20.024789 21.712193 2.779870 1.227387 9.587435 28.482979 60.472439 7.605838 2.104382 -68.026537 -15.367111 2.146566 10.126688 26.711774 -1.648310 0.207358 12.081765 -8.532081 4.581875 -22.117153 11.803701 -9.749919 41.020070 5.183155 5.276603 -10.976709 0.650062 0.646152 -6.129418 -0.038949 4.718848 -35.608571 10.242270 52.181683 9.745963 8.844432 34.734736 11.069764 -13.805981 -77.667743 -11.819946 -10.505397 -10.493490 -20.626325 -0.572851 -55.457732 -12.213738 12.101623 -32.369246 5.582909 -3.574804 68.213504 8.824218 1.392995 30.810554 -36.949333 5.556010
0.009965 0.949079 0.082126 -0.000000 0.000000 -11.232143 -55.986655 -14.471400 15.634551 67.863053 -13.054729 -7.641228 -19.398441 20.582813 2.425920 0.517508 10.501586 29.258928 60.205612 8.043919 2.598069 -67.484377 -14.511263 1.966742 9.768333 26.480586 -1.561257 -0.027135 11.866127 -7.721030 5.471254 -22.050808 12.298945 -10.990760 41.344439 5.630585 4.441165 -10.629958 0.428447 1.704811 -5.964835 0.041521 4.608330 -35.658154 9.887931 52.973362 10.058209 8.798708 35.128542 9.341416 -12.208120 -75.716432 -14.719331 -8.184248 -17.203535 -34.516648 -1.162138 -55.502441 -12.822993 12.879098 -32.547763 4.755624 -5.303638 65.900414 9.926836 0.708980 41.480155 -43.560640 9.837883
